<svg id="Capa_1" data-name="Capa 1" xmlns="http://www.w3.org/2000/svg" viewBox="0 0 954.26 472.4"><defs><style>.cls-1{fill:#72c7c0;}.cls-2{fill:#23908a;}.cls-3{fill:#57bab5;}.cls-4{fill:#dbf1ef;}.cls-5{fill:#97d5d0;}</style></defs><g id="Capa_1-2" data-name="Capa 1"><polygon class="cls-1" points="569.99 125.97 639.35 125.97 582.76 205.44 541.71 144.3 569.99 125.97"/><polygon class="cls-2" points="663.69 125.97 640.16 161.68 687.21 182.13 663.69 125.97"/><polyline class="cls-3" points="626.23 125.97 629.44 125.97 664.75 125.97 600.55 233.48 582.1 202.22"/><path d="M0,431.22v-.67a36.17,36.17,0,0,1,7.38-2.8q2.11-3,4.11-3a10.18,10.18,0,0,0,4.87-1.4h.21l2.08.26q.8-.14,4.83-3.22a11,11,0,0,0,7.58-3l.94-.47c2.14.2,3.22,1.27,3.22,3.22v.26a1.64,1.64,0,0,1-.68.21V422c0,.9-.62,1.35-1.87,1.35,0,.23-.53.47-1.61.72l-.46-.25a27.56,27.56,0,0,1-7.8,2.29,12.73,12.73,0,0,1-4.41,2.33,2.86,2.86,0,0,1-1.61,1.35c-1.35-.14-2.19-.21-2.5-.21a24,24,0,0,1-5.08,1.15c0,.31-.23.46-.68.46v1.61q1.14,0,10.34,3.44c1.72,0,2.8.55,3.22,1.65a23.24,23.24,0,0,0,8.52,2,1.82,1.82,0,0,1,.72-.21l1.14.68h1.61a2.22,2.22,0,0,0,.68,1.4c0,2-.54,3-1.61,3,0,.19-.61.49-1.82.89l-3.46-1.09v-.21a.19.19,0,0,0-.21.17v0a5,5,0,0,0-1.61-.93l.21-.47H26v.26c-.88-.76-3.26-1.3-7.16-1.61a37.2,37.2,0,0,0-6.44-2.55q-6.48-3-9-3c-.73,0-1.65-.92-2.75-2.76A4.54,4.54,0,0,1,0,431.22Z"/><path d="M88.53,390.37H86.24a2.45,2.45,0,0,1,1.61.72.22.22,0,0,1,.19-.25h.06c1.39.73,1.66,2.43.81,5.08.31,0,.46.54.46,1.61V398l-2.51,2.08a6.36,6.36,0,0,0-.59,2.75c0,.82-.76,1.74-2.29,2.76a25.57,25.57,0,0,1-2.29,5.29c0,.77-.62,2.53-1.86,5.3a50.13,50.13,0,0,1-2.54,5.08,10.45,10.45,0,0,1-2.5,5.73,31.18,31.18,0,0,1-2.34,5.29c0,1.7-.91,3.85-2.75,6.44,0,.94-.23,1.4-.68,1.4a.19.19,0,0,0,.17.21h0a55.1,55.1,0,0,0-3.43,8.78l-1.14,1.61L61.22,459a13.56,13.56,0,0,1-.46,2.08,1.41,1.41,0,0,1,.25.68c0,.22-1,1.13-2.92,2.71Q56.72,470,56,470l-.59-.42c-1.24,0-1.87-.7-1.87-2.08A70.16,70.16,0,0,1,57,457q3-2.46,3-3.69a18,18,0,0,1,1.33-5.09c.68,0,1.37-.9,2.08-2.54h.21c-.31-1.36-.53-2-.68-2L65.52,439a10.75,10.75,0,0,1,1.61-2.29c0-2.63.38-3.94,1.14-3.94a15.07,15.07,0,0,0,1.4-4.83A7.69,7.69,0,0,0,73.1,421l-.21-1.4c0-.56.69-1.33,2.08-2.29a22.78,22.78,0,0,0,2-3.9l.47.22-.21-.47c.67-.76,1.44-2.6,2.28-5.51.54,0,1.16-1.83,1.87-5.51.17-1.24.46-1.86.89-1.86l-.21-.47v-.93a6.1,6.1,0,0,0,1.61-3.9c.39-.25,1.23-1.55,2.54-3.9A5.76,5.76,0,0,1,88.53,390.37Z"/><path d="M117,405.59a7.15,7.15,0,0,0,2.55.46c.51,0,2.12-.08,4.83-.25l2.29.25.46-.25,1.4.25h.21a21.91,21.91,0,0,0,3.22-.46c4.78.14,7.84.21,9.2.21,3.84.53,5.76,1.71,5.76,3.56a4.92,4.92,0,0,1,.68,2.33l-.21,2.12a5,5,0,0,0,.93,1.9L148,416.9v1.19a6.65,6.65,0,0,0,.72,2.12c-.17,2.17-.26,4.05-.26,5.63v.68l-.93,1.23a7.72,7.72,0,0,1-4.37-3.31v-.27a5.8,5.8,0,0,0,.47-2.63,48.62,48.62,0,0,1-.93-7c-.23,0-.52-.31-.89-.94.14,0,.21-.08.21-.25h-.19v.25c-.37,0-1.15-.79-2.33-2.37a8,8,0,0,1-4.11-1.18q-11.53,0-11.53,2.37a4,4,0,0,0-.46,1.91l1.14,2.33c-.45,2.31-.83,5-1.14,8-.32,0-.47.49-.47,1.45,0,1.13,1.54,2,4.62,2.54,3.22-.51,4.83-1.35,4.83-2.54.39-.54.78-2.5,1.14-5.89a2.82,2.82,0,0,1,2.29-1h.72c.23,0,.52.33.89,1v1.65a14.3,14.3,0,0,0,.47,1.82,15.22,15.22,0,0,0-.47,2.42,10.71,10.71,0,0,1,.72,2.79,3.92,3.92,0,0,0-.93,2.12,31.21,31.21,0,0,1,.93,3.31,13.05,13.05,0,0,0-.25,1.39,13.21,13.21,0,0,1,.46,3.31v.72c0,1.27-.91,2.44-2.75,3.52h-.21a4.51,4.51,0,0,1-3.27-4.71c-.76-3.44-1.59-5.17-2.5-5.17a12,12,0,0,1-2.07.22h-.47a.41.41,0,0,1-.46-.35.24.24,0,0,1,0-.12c-2.46,1.07-3.69,2.49-3.69,4.24l.68,2.58L123,444.2a3,3,0,0,1,.47,1.44v.21a25.09,25.09,0,0,0-.47,2.59v.73a15.35,15.35,0,0,1,1.61,2.33v.25l-.21.47h.21a.22.22,0,0,1,.19-.25h.06c0,.64,2.45,1.13,7.33,1.44a6.77,6.77,0,0,1,3,1.86c-2.09,1.72-3.39,2.59-3.89,2.59l-.47-.22a5.55,5.55,0,0,0-2.08.72,12.93,12.93,0,0,0-4.15-1c-.34,0-1,.55-1.82,1.65H122q-.85-.88-5-1.4a7.87,7.87,0,0,1-2.75,1.4,3.81,3.81,0,0,0-3-1.65h-.93a2.83,2.83,0,0,1-1.61,1,2.62,2.62,0,0,1-1.36-1.18v-1.91a8.45,8.45,0,0,1,4.11-3,35,35,0,0,0,3.69.25c.65,0,1.5-.55,2.54-1.65l-.21-.51a33.93,33.93,0,0,0,.89-5.38q0-1.65-.42-1.65a7.86,7.86,0,0,0,.89-2.33,21.57,21.57,0,0,0-.22-3.31q.69-3,.94-15.55a.19.19,0,0,0,.21-.17v0c-.62,0-.93-.81-.93-2.42v-.68a13,13,0,0,1,.93-2.58c0-3.14-.69-4.7-2.08-4.7,0-.12-1.38-.36-4.15-.72l-3.69.25a8,8,0,0,1-1.16-2.86v-.25c.9-1.28,1.59-2,2.08-2.12H116A2.14,2.14,0,0,0,117,405.59Z"/><path d="M207.86,419.44q4.57,1.28,5.3,2.76,1.35,0,2.75,4.87c.15,0,.22.07.22.21v2.08a11,11,0,0,0,.25,2.07c0,1.22-2.15,2.29-6.44,3.23q-3.94-1.28-3.94-3c-.2,0-.43-.45-.68-1.36a16.68,16.68,0,0,0,.25-2.54v-.47c-.7-1.24-2-1.86-3.94-1.86a14.46,14.46,0,0,0-3,2.33c-.67.05-2,1.35-4.16,3.9a35.88,35.88,0,0,1-3.47,5.08v.43a3.61,3.61,0,0,0,.47,1.82,12.11,12.11,0,0,0-.47,3.22,10.37,10.37,0,0,0,.25,2.08,7.17,7.17,0,0,0-.46,2.75q0,5.55,3.43,5.55h4.64a14.26,14.26,0,0,0,1.82-.46h.72c2.15,0,3.81,1.61,5,4.83v.68a2,2,0,0,0-.21.67h-.68a3.4,3.4,0,0,0-1.86-.67c-.59.08-1.06.55-1.4,1.39a1.81,1.81,0,0,0-.68.22,24.43,24.43,0,0,0-6.23-1.61,7,7,0,0,0-1.82,1.39h-.66c0-.31-.53-1-1.61-2.07h-.72a10.79,10.79,0,0,0-4.36,2.07,8.24,8.24,0,0,0-2.08-.46h-4.83a3.28,3.28,0,0,0-2.07,1.14,19.49,19.49,0,0,0-3.9-1.82,1.55,1.55,0,0,1-.68-1.19,7,7,0,0,0,1.14-2.5,15.74,15.74,0,0,1,4.37-1.14c0-.17.46-.25,1.4-.25h4.83a2,2,0,0,0,1.14-1.83,26.87,26.87,0,0,0-.25-3.47,26.69,26.69,0,0,0,.25-3.22,37.85,37.85,0,0,1-.68-5.3,8.61,8.61,0,0,0,.89-2.75,8.18,8.18,0,0,1-.46-2.29c0-.79.24-1.19.72-1.19-.62-5.06-1.16-7.58-1.61-7.58h-.72a17.22,17.22,0,0,0-4.58.46l-1.4-.25h-.46a14.52,14.52,0,0,0-3,.46c-1.08-.31-1.61-.91-1.61-1.82q.51-4.15,3.64-4.15l1.66.68a12.94,12.94,0,0,1,3.22-.43h.76q8.31.35,8.31,2.76a4.17,4.17,0,0,0,2.5,1.61q1.65,0,3.47-3,.18,0,5.77-1.36a.19.19,0,0,0,.16.22h.05c0-.23.23-.46.68-.68h2.54A17.76,17.76,0,0,0,207.86,419.44Zm-27.71,42.38a6.17,6.17,0,0,0,1.44.51,10.44,10.44,0,0,1,2-.26h.55c.76,0,1.14.26,1.14.77a1.76,1.76,0,0,1-1.14.42,3.8,3.8,0,0,1-1.06-.13,10.6,10.6,0,0,1-1.69.13h-.13a8.79,8.79,0,0,1-2.12-.64h-.89c-.17,0-.25-.1-.25-.29Zm21.27-20.26h.44v.94a1.82,1.82,0,0,0-.72.21l-.21-.47V442C201,441.72,201.17,441.56,201.42,441.56Z"/><path d="M259,419.61c.54.45,1.92.78,4.15,1a9.83,9.83,0,0,1,2.74,2.56c-.14,0-.21.09-.21.26a1.49,1.49,0,0,1,.67-.26,7.51,7.51,0,0,1,3,2.59q4.57,2.58,4.58,11.65c0,1.55-1.3,2.73-3.9,3.56l-1.14-.21a8.4,8.4,0,0,0-5.09,1.65,4,4,0,0,0-1.82.21,3.79,3.79,0,0,0-1.61-.46l-1.61.93a8.71,8.71,0,0,0-2.08-.47c-.34,0-1.18.09-2.54.26a11.31,11.31,0,0,0-4.36-1.23q-2.34.51-2.34,1.65c-.67-.23-1,.14-1,1.1-.48.79-.14,1.94,1,3.43.8,3,2.18,4.54,4.16,4.54.45.45,1.83,1,4.15,1.65,0,.23.31.45.93.68a18.3,18.3,0,0,0,6-1.4c1,0,1.88-.87,2.75-2.63a10.32,10.32,0,0,0,2.76-1.65c0,.14.08.21.25.21V449a.22.22,0,0,1-.25-.19v-.06l1.18-.68c0,.17.07.25.22.25v-.51h1.86a2.76,2.76,0,0,1,1.36,2.59v.51c0,1.5-1.15,2.68-3.44,3.56a7.4,7.4,0,0,1-2.33,2.16l-.46-.3v.3c.17,0,.25.07.25.21a38.61,38.61,0,0,1-5.76,1.65h-.68l-.47-.21v.47H258.5A38.67,38.67,0,0,0,250,458a12.63,12.63,0,0,0-3.9-2.54c0-.48-1.16-2.07-3.48-4.79-1-1.66-1.85-4.5-2.5-8.51V435a33.36,33.36,0,0,1,1.83-6.66,10.08,10.08,0,0,0,2.75-4A22,22,0,0,1,259,419.61Zm.09,7.12q-1.23,0-1.23-.51-4.24.46-5.13,1.44-4.24-.26-6.1,5.3-1.48,4.92,3.18,4.45a1.82,1.82,0,0,1,.72-.21.54.54,0,0,0,.5.51l.72.08c1.95.09,2.93,0,2.93-.38a.22.22,0,0,1,.25.19v.06l1.23-.16h1.23l1.48.38a15.14,15.14,0,0,1,4.11-.76c.12-.2,1.5-.53,4.16-1v-.25c0-.45-.07-.68-.21-.68l1.27-.72-1.06-2.3a4.11,4.11,0,0,0-3.14-3.52v-2.12a6,6,0,0,0-2-.81,7.82,7.82,0,0,0-2.71,1.06Z"/><path d="M311.77,419.36c4.3,0,6.44,1.26,6.44,3.77l.22.47-.22,2.33a11.08,11.08,0,0,1,.68,3.47v9.11c0,2,.09,4.14.26,6.32a18.3,18.3,0,0,0-.26,3.77c0,2.94.85,4.4,2.55,4.4a26.67,26.67,0,0,0,3.89.26h.26a13.68,13.68,0,0,0,2.29-.47c2.14.4,3.22.78,3.22,1.15l.46-.26a19.84,19.84,0,0,1,2.08,2.12,7.21,7.21,0,0,1-1.4,3.26q-9.11-.42-11-1.14c-1.35.17-2.2.25-2.54.25a2.71,2.71,0,0,0-1.4-.46h-2.75a18,18,0,0,0-6.44,1.61,4.63,4.63,0,0,0-2.29-.68h-1.4c-1.53,0-2.29.17-2.29.42-3.08-.67-4.62-1.82-4.62-3.47,0-2.18,2.31-3.26,6.91-3.26a9.77,9.77,0,0,0,2.29.21l1.61-.68,1.4.21h.21q3.22,0,3.22-6.57c.2,0,.35-.45.47-1.35l-.47-2.12a1.68,1.68,0,0,1,.25-.72,13.23,13.23,0,0,0-.25-1.4c.17-2,.25-3.12.25-3.52l-.25-1.61a9.64,9.64,0,0,0,.72-2.79v-1.4c0-3.11-.92-4.67-2.75-4.66a1.57,1.57,0,0,0-.94-.3l-2.32.54L306.2,426a10.63,10.63,0,0,0-3.22.46,2.3,2.3,0,0,1-1.61-2.12,8.86,8.86,0,0,1,.93-2.58h-.21c0-.74,1.3-1.2,3.9-1.4,0-.23.54-.47,1.61-.72a13.59,13.59,0,0,1,2.08.47Zm3.9-14.75q3,0,6.7,3.73v.25c-.4.57-.78,2.12-1.15,4.67-.93,1.89-2.08,2.83-3.47,2.83,0,.34-1.23.57-3.69.68-2.46-.93-3.68-2.88-3.68-5.85C311.14,406.72,312.86,404.61,315.67,404.61Zm10.64,18.44h1.19a.52.52,0,0,0,.44.59h.15v1.53h-1.23c-.48,0-.78-.39-.89-1.19A2.23,2.23,0,0,0,326.31,423.05Zm2,40a2,2,0,0,0,.68.21v.26c0,.31-.14.46-.42.46h-.71a.41.41,0,0,1-.47-.34.48.48,0,0,1,0-.12Z"/><path d="M375.93,419.17c1.5,0,4.25.69,8.27,2.07v.22c-.15,0-.22.08-.22.25.15,0,.22-.08.22-.25l1.61.25h.25c3.56-1.55,5.64-2.32,6.23-2.33h2.76c1.46,0,2.85,1.23,4.15,3.69a37.06,37.06,0,0,1,.42,3.94c-1.84.14-2.75.75-2.75,1.82H396l-2.33-2.08c-.91-.7-1.36-1.15-1.36-1.35-1.38.39-2.08,1.76-2.08,4.11a25.11,25.11,0,0,1-.25,3l.25,1.14c-.56,4.78-1.41,7.16-2.54,7.16,0,.26-1.23.71-3.69,1.36-1.89,2.15-3,3.22-3.47,3.22a13.67,13.67,0,0,1-2-.42l-3,.42c-2.12-1.21-3.51-1.82-4.16-1.82a13.23,13.23,0,0,0-3-1.4,4.14,4.14,0,0,1-1.65.72c0-.17-.08-.25-.22-.25v.25a.19.19,0,0,1,.22.16v.05c-.71,0-1.7.85-3,2.54v.53a6.06,6.06,0,0,0,1.61,3.69c-.17,0-.25.07-.25.21.31,0,.77.46,1.39,1.4a9.56,9.56,0,0,0,2.76.46l5.55-2.33,6,.47a3.78,3.78,0,0,1,1.83-.47q9.23,2.08,9.23,3.22a7.76,7.76,0,0,1,3.9,3.22l-.21.47h.21c0-.14.09-.21.26-.21q1.35,1.14,1.35,6.44c0,1.07-.31,1.61-.93,1.61l.26.47a6.88,6.88,0,0,1-2.55,3.68c-.48,0-1.78.61-3.9,1.82-1.69,0-2.77.54-3.22,1.61a1.69,1.69,0,0,1-.72.26,4.49,4.49,0,0,0-1.82-.72q0,.42-6.44.72v.21q-8.52-.3-8.52-.93l-.46.25q-.51-.63-6.23-1.14a15.26,15.26,0,0,1-2.55-3.22,3.61,3.61,0,0,1-1.82-2.8.19.19,0,0,0,.21-.17v0c-.45,0-.67-.76-.67-2.29v-.93a12,12,0,0,1,2.07-5.76,3.77,3.77,0,0,0,.93-2.08,7.67,7.67,0,0,1-2.33-5q.6-6,2.08-6.23l3.48-3.9v-.47a9.3,9.3,0,0,0-1.15-3.47,24.49,24.49,0,0,1,2.29-8.73c0-.48.61-1.26,1.82-2.33,0-.88,1.16-1.57,3.48-2.08,0-.73,1.45-1.19,4.36-1.36C375,419.54,375.31,419.39,375.93,419.17Zm3.22,35.68q-1.95-.21-3-.21v.21a6.67,6.67,0,0,0-2.55-.68h-.21a2.82,2.82,0,0,0-1.4.47l-3.64-.26c-1,0-2,.78-3,2.33a23.58,23.58,0,0,1-2.75,4.11v.47c0,.11.07.58.21,1.4a.19.19,0,0,0-.21.17v0q2.88,3.48,5.76,3.48,0,1,4.36,2.07v.21a.19.19,0,0,0,.21-.17v0a3.93,3.93,0,0,0,1.87.47q12.21-1,12.2-1.87c3.68-1.13,5.51-2.12,5.51-3s.62-1.71,1.87-3a2.81,2.81,0,0,0,.42-1.15c0-.76-1.23-1.29-3.69-1.61a7.6,7.6,0,0,0-6.44-3.47,7.94,7.94,0,0,0-2.5-.93h-.72a5.74,5.74,0,0,0-2.3,1Zm-11.06-23.68v2c0,2.15,1.7,4.39,5.09,6.7a17.74,17.74,0,0,0,4.58.68,19.08,19.08,0,0,0,4.15-.89q0-.35,3-3l.21-1.61v-4.62c0-.76-.61-1.75-1.82-3q0-3-2.55-3a8.88,8.88,0,0,1-2.28-1.61h-.72a11.36,11.36,0,0,0-8.27,6l-1.14,1.4A1.6,1.6,0,0,0,368.09,431.17Z"/><path d="M442,419.61c.53.45,1.92.78,4.15,1a10,10,0,0,1,2.75,2.56c-.14,0-.21.09-.21.26a1.49,1.49,0,0,1,.68-.26,7.59,7.59,0,0,1,3,2.59q4.57,2.58,4.58,11.65c0,1.55-1.3,2.73-3.9,3.56l-1.15-.21a8.37,8.37,0,0,0-5.08,1.65,4,4,0,0,0-1.82.21,3.83,3.83,0,0,0-1.61-.46l-1.61.93a8.71,8.71,0,0,0-2.08-.47c-.34,0-1.19.09-2.54.26a11.35,11.35,0,0,0-4.37-1.23c-1.55.34-2.33.89-2.33,1.65-.68-.23-1,.14-1,1.1-.48.79-.14,1.94,1,3.43.79,3,2.18,4.54,4.15,4.54.46.45,1.84,1,4.16,1.65,0,.23.31.45.93.68a18,18,0,0,0,6-1.4c1,0,1.88-.87,2.76-2.63a10.11,10.11,0,0,0,2.75-1.65c0,.14.09.21.26.21V449c-.17,0-.26-.08-.26-.25l1.19-.68c0,.17.07.25.21.25v-.51h1.87a2.73,2.73,0,0,1,1.35,2.59v.51c0,1.5-1.14,2.68-3.43,3.56a7.52,7.52,0,0,1-2.33,2.16l-.47-.3v.3c.17,0,.26.07.26.21a38.73,38.73,0,0,1-5.77,1.65h-.67l-.47-.21v.47h-1.4A38.67,38.67,0,0,0,433,458a12.63,12.63,0,0,0-3.9-2.54c0-.48-1.15-2.07-3.47-4.79q-1.53-2.49-2.5-8.51V435a34,34,0,0,1,1.82-6.66,10.11,10.11,0,0,0,2.76-4A22,22,0,0,1,442,419.61Zm.08,7.12q-1.23,0-1.23-.51-4.23.46-5.12,1.44c-2.83-.17-4.86,1.6-6.11,5.3q-1.49,4.92,3.18,4.45a1.82,1.82,0,0,1,.72-.21.56.56,0,0,0,.51.51l.72.08c2,.09,2.92,0,2.92-.38a.23.23,0,0,1,.26.2v.05l1.23-.16h1.23l1.48.38a15.14,15.14,0,0,1,4.11-.76c.11-.2,1.5-.53,4.15-1v-.25c0-.45-.07-.68-.21-.68l1.27-.72-1.06-2.3a4.1,4.1,0,0,0-3.13-3.52v-2.12a6,6,0,0,0-2-.81,7.87,7.87,0,0,0-2.72,1.06Z"/><path d="M495.86,419.74l2.08.25c1.89-.17,2.88-.25,3-.25q6.1,1.14,8.77,3.31c-.14,0-.21.08-.21.25.14,0,.21-.09.21-.25l1.14.25c.23,0,.77-.55,1.61-1.65l1.4-.26a1.72,1.72,0,0,1,1.83,1.61c0,.1,0,.2,0,.3l-.46,1.86a30.27,30.27,0,0,1,.25,3.56l-.46,1.66c.14,1.58.21,2.83.21,3.77a5.86,5.86,0,0,1-3.69.89,15.6,15.6,0,0,0-1.61-4c.17,0,.26-.07.26-.21h-.26a.19.19,0,0,1-.17.21h0a6.21,6.21,0,0,0-6.23-4v-.25l.72-1.19v-.93h-.47l-1.39.25a8.62,8.62,0,0,0-1.83-.76,46.38,46.38,0,0,1-4.4,1.91l-3.69-.68c-1.53.87-2.29,3-2.29,6.31,0,1.24,1.23,2.28,3.69,3.1,0,.14.22.29.68.46a11,11,0,0,1,2.07-.25q0,.33.72.72h1.15a5.66,5.66,0,0,1,1.14-.93h.68c.71,1.1,2.41,1.65,5.08,1.65a14,14,0,0,0,1.83-.21,18.15,18.15,0,0,1,2.33,1.65c1.8,0,3,.61,3.64,1.82a9,9,0,0,1,4.15,7.8v.93a24.46,24.46,0,0,1-1.14,3.77q0,1.79-3.9,3.52A4.12,4.12,0,0,1,509,457q0,.46-4.83,1.35a2.34,2.34,0,0,1-1.19,1.44h-.42a8.5,8.5,0,0,1-3.69-1.44,3.79,3.79,0,0,0-1.61-.46,4,4,0,0,0-1.86.93,14,14,0,0,0-4.15-1.14c-.09-.46-.7-.68-1.83-.68H489a16.4,16.4,0,0,1-1.87,2.12c-2.29-.34-3.43-1-3.43-1.91a9,9,0,0,1-.47-2.12l.68-2.37v-1.4c0-1.58-.22-2.6-.68-3l.26-1.23v-3c0-1.1.61-1.65,1.82-1.65q2.55,0,5.51,8.22c3.84,2.66,6.45,4,7.84,4a2.49,2.49,0,0,0,1.14-.21,14.51,14.51,0,0,0,2.08.21,11.24,11.24,0,0,0,5.55-1.86c1.1,0,2.09-.78,3-2.33a1.92,1.92,0,0,0,1.4-1.91V446.4a2.37,2.37,0,0,0-1.61-2.12h-1.15l-.93.72-.47-.25V445c.14,0,.21.07.21.22h-.42c-.25,0-.57-.78-.93-2.34h-.93a14.45,14.45,0,0,0-1.83.47h-.25a7.16,7.16,0,0,1-4.37-2.84h-.46c-.88,1.05-1.57,1.6-2.08,1.65-.79,0-2-.65-3.68-1.86q-2.76,0-2.76-1.44c-2.91-1.56-4.37-2.73-4.36-3.52a5,5,0,0,0-.68-2.12c.14,0,.21-.08.21-.25-.37,0-.59-.55-.68-1.65q0-6.31,1.82-6.32,1.69-3.3,4.62-3.3a35.8,35.8,0,0,1,4.62-1.66C495.69,419.82,495.76,419.74,495.86,419.74Zm12.89,12.75h.72v.43a.41.41,0,0,1-.35.46h-.37a.41.41,0,0,1-.47-.34.48.48,0,0,1,0-.12c.1-.28.25-.43.51-.43Z"/><path d="M557.56,404.82c.62,0,1.32,1.23,2.08,3.69q.21,6.27.21,7.58l.26.47a1.79,1.79,0,0,0-.26.93v.22q0,1.86,3,1.86c0,.14.38.3,1.14.47,4.19-.31,6.71-.47,7.59-.47,3.7.25,5.55,1,5.55,2.08V423c0,1.1-1,2.18-3,3.22q-1.35-.51-1.35-1.14h-.47c0,.48-.62,1-1.86,1.4l-1.36-.47a51.86,51.86,0,0,1-7.63,2.08.4.4,0,0,1-.33.46H561a33,33,0,0,1,.25,3.44,77.18,77.18,0,0,1-.93,8.3c.2,1.08.42,1.61.68,1.61l-.22,2.29v.68l.22,1.4a2.24,2.24,0,0,0-.22,1.14v.26c0,.59.77,1.51,2.29,2.75a1.63,1.63,0,0,0,1.41,1.83,1.77,1.77,0,0,0,.46,0h.21c1.19,0,2.72-1.07,4.62-3.22a28.36,28.36,0,0,0,1.82-5.3,4.84,4.84,0,0,1,3.94-2.28c2.15,0,3.23,1.23,3.22,3.68v.47a48.29,48.29,0,0,1-2.07,6.65l-3.48,4.41c-2.09,1.52-3.93,2.29-5.51,2.29l-1.61-.26a3.76,3.76,0,0,1-1.82.72h-.47l-2.33-.72h-1.14v-.42l-.47.21a16.64,16.64,0,0,0-3.68-4.62,18.16,18.16,0,0,1-2.08-8q-.42,0-.68-10.13a6.63,6.63,0,0,0,.68-2.07c-.17-4.75-.63-7.12-1.36-7.12a5.55,5.55,0,0,0-2.75-.93h-1.87a52,52,0,0,1-6.65,1.39q-1.44,0-1.61-4.87c.59-1.53,1.29-2.29,2.08-2.29l2.75.26,2.76-.26,1.14.26q5-1.32,6-3.22a24.18,24.18,0,0,0-.47-3.69q.25-3.78.25-6.7v-.68C554.34,405.17,555.42,404.82,557.56,404.82Z"/><path d="M618.33,419.17a12.52,12.52,0,0,0,2.76.68,9,9,0,0,1,2.07-.68,10.74,10.74,0,0,0,5.3,1.86,9.26,9.26,0,0,1,3.9,3.1c2,0,3.16,1.32,3.47,4a3.38,3.38,0,0,1,.68,2.12v.68a33.46,33.46,0,0,1-.46,6.4,6.6,6.6,0,0,1,.72,2.11q0,1.49-.26,6.11a5.53,5.53,0,0,0,.68,1.65,8.93,8.93,0,0,0-.42,1.91l1.14,4a2.66,2.66,0,0,0,1.61.68h.68c1.36,0,2.27-.85,2.75-2.54,0-.71,1.08-1.12,3.22-1.23a5.94,5.94,0,0,1,.73,1.65c0,1.19-.92,2.3-2.76,3.31a5.74,5.74,0,0,0-1.86,3l-.94.51q-5.51,0-5.51-1.44c0-1.11-1.38-2.05-4.15-2.84-.42,0-1.34.63-2.75,1.9-2.77.79-4.23,1.19-4.37,1.19a.22.22,0,0,0-.19-.25h-.06v.25c.17,0,.25.07.25.21,0,.76-2.14,1.31-6.44,1.65a2.71,2.71,0,0,0-1.4-.46,13.44,13.44,0,0,0-2.07.46,24.79,24.79,0,0,0-5.79-2q-4.58-4.85-4.57-7.29v-.47q0-3.09,3.22-7.59c.22,0,.83-.53,1.82-1.61l.47.26v-.3c-.17,0-.26-.08-.26-.25a9.06,9.06,0,0,0,2.54-.25c0,.17.09.25.26.25v-.25c-.17,0-.26-.07-.26-.22a3.75,3.75,0,0,1,2.34-1.18H616a6.55,6.55,0,0,1,1.82.25q1.77,0,9.19-2.84h.47l1.61.21,3.47-2.11.22-.89a8,8,0,0,0-1.36-4.54,8.71,8.71,0,0,1,.47-2.08,7.78,7.78,0,0,1-3.48-1.22l-1.14.25h-.44c-.85-.93-1.54-1.4-2.07-1.4a9.24,9.24,0,0,1-2.29.72,6.78,6.78,0,0,0-2.76-1.44c-3.36,1.08-5.12,1.78-5.29,2.12-.43.74-1.05,3.09-1.87,7.08a6.43,6.43,0,0,1-2.08.72q-4.37-.68-4.36-2.16v-2.77c0-.65.54-1.53,1.61-2.63,0-1.27,1.61-2.69,4.83-4.24a10.75,10.75,0,0,1,4.62-1.14C617.19,420,617.57,419.64,618.33,419.17Zm8.31,21.44-1.19-.21a6.43,6.43,0,0,1-4.83,1.65c-.48,0-1.09.62-1.82,1.87h-.47a21.84,21.84,0,0,0-3-.72c-3.67.53-5.51,1.15-5.5,1.86l-.68,2.84c0,2.32.45,3.81,1.35,4.49a.19.19,0,0,0-.21.17v0l.47-.21a34.82,34.82,0,0,0,5.72,2.37l1.65-.25a13.82,13.82,0,0,0,3.22.93c0-.48,1.91-1.42,5.72-2.84a19.87,19.87,0,0,1,3.94-3.26q1.53-1.23,2.29-5.17v-.51c-.34-2.51-.87-3.77-1.61-3.77h-.21a21.39,21.39,0,0,1-4.84.74Z"/><path d="M685,404.78a16.25,16.25,0,0,0,3.9.72h.47v.42a.19.19,0,0,0,.21-.17v0q1.86.56,1.86,3v.21a3.81,3.81,0,0,1-.46,1.87c.31,1.47.62,3.68.93,6.65l-.26,1.61c.17,2.83.26,4.59.26,5.3-.31,1.41-.47,2.17-.47,2.29l.21,1.18-.21,1.15.47,7.84c-.17,1.92-.26,3.06-.26,3.43a11.16,11.16,0,0,0,.26,2.08c-.17,1.89-.26,3.72-.26,5.5v2.55q.85,3,3,3a12.52,12.52,0,0,0,3.22.46h.47a6.68,6.68,0,0,1,1.61-1.18,37.92,37.92,0,0,0,5.3.93c2.14,0,3.22,1.38,3.22,4.15a1.52,1.52,0,0,1-1.61,1.14c-.2,0-1-.07-2.33-.21l-2,.89a56.38,56.38,0,0,0-5.76-1.14,3.85,3.85,0,0,0-1.4.46q-4.92-.21-5.76-.93a20.73,20.73,0,0,0-4.37.47l-1.4-.21q-8,.68-10.34,1.14c-2.6-.2-3.89-.66-3.89-1.4v-.68q0-2.75,3-3.89a8.7,8.7,0,0,0,2.08.46,39.19,39.19,0,0,1,6.91-.93h1.86c1.24,0,2.23-.76,3-2.29q-.21-2.37-.21-3.69v-1.86l.21-.47c-.4,0-.71-.45-.94-1.35a6.15,6.15,0,0,0,.73-2.08v-.72a42.41,42.41,0,0,1-.73-6.65,7.33,7.33,0,0,0,.26-2.08,2.79,2.79,0,0,1-.47-1.4,13.57,13.57,0,0,0,.47-2.28V426.2c0-1.24.07-2.86.21-4.87a1.64,1.64,0,0,1-.21-.68l.21-.93c-.14-2-.21-3.72-.21-5a3.68,3.68,0,0,0-3.9-3,15.45,15.45,0,0,1-2.54-.21,13,13,0,0,1-2.33.21,8.78,8.78,0,0,0-1.83-.47l-2.07.26a5.91,5.91,0,0,1-5.3-3V408c1.61-1.83,3.06-2.75,4.37-2.75l3.94.67A56.39,56.39,0,0,1,685,404.78Zm19.24,34.54.47,1.27-.68.85h-.93v-1.66Zm6,0h.21c.31.11.47.39.47.84v1.28h-1.15l-1.4-.47a2,2,0,0,1-1.35.85c-.31,0-.47-.28-.47-.85s.21-.81.47-.81a8.15,8.15,0,0,0,1.35.43c.79-.85,1.41-1.27,1.89-1.27Zm3.43,1.27h.72V441c0,.57-.16.85-.47.85h-.72v-.38c.08-.57.24-.85.49-.85Zm2.33-.43a1.18,1.18,0,0,0,.68.43v1.58h-.93c-.23,0-.46-.41-.68-1.23v-.38a1.26,1.26,0,0,0,1-.39Z"/><path d="M744.91,404.82c.63,0,1.32,1.23,2.08,3.69q.21,6.27.21,7.58l.26.47a1.79,1.79,0,0,0-.26.93v.22q0,1.86,3,1.86c0,.14.38.3,1.15.47q6.27-.46,7.58-.47c3.7.25,5.55,1,5.55,2.08V423c0,1.1-1,2.18-3,3.22q-1.35-.51-1.35-1.14h-.47c0,.48-.62,1-1.86,1.4l-1.36-.47a51.86,51.86,0,0,1-7.63,2.08.4.4,0,0,1-.33.46h-.13a33,33,0,0,1,.25,3.44,77.18,77.18,0,0,1-.93,8.3c.2,1.08.42,1.61.68,1.61l-.21,2.29v.68l.21,1.4a2.49,2.49,0,0,0-.21,1.14v.26c0,.59.76,1.51,2.28,2.75a1.64,1.64,0,0,0,1.43,1.83,2.16,2.16,0,0,0,.44,0h.21q1.79,0,4.62-3.22a28.36,28.36,0,0,0,1.82-5.3,4.84,4.84,0,0,1,3.94-2.28q3.23,0,3.22,3.68v.47a48.29,48.29,0,0,1-2.07,6.65l-3.48,4.41c-2.09,1.52-3.93,2.29-5.51,2.29l-1.61-.26a3.76,3.76,0,0,1-1.82.72h-.47l-2.33-.72h-1.14v-.42l-.47.21a16.64,16.64,0,0,0-3.68-4.62,18.16,18.16,0,0,1-2.08-8q-.42,0-.68-10.13a6.63,6.63,0,0,0,.68-2.07c-.17-4.75-.63-7.12-1.36-7.12a5.55,5.55,0,0,0-2.75-.93h-1.86a52.16,52.16,0,0,1-6.66,1.39q-1.44,0-1.61-4.87c.6-1.53,1.29-2.29,2.08-2.29l2.75.26,2.76-.26,1.14.26q5-1.32,6-3.22a24.18,24.18,0,0,0-.47-3.69q.25-3.78.25-6.7v-.68C741.69,405.17,742.77,404.82,744.91,404.82Z"/><path d="M810,419.61c.53.45,1.92.78,4.15,1a10.24,10.24,0,0,1,2.75,2.58c-.14,0-.21.09-.21.26a1.53,1.53,0,0,1,.68-.26,7.59,7.59,0,0,1,3,2.59q4.57,2.58,4.58,11.65c0,1.55-1.3,2.73-3.9,3.56l-1.15-.21a8.37,8.37,0,0,0-5.08,1.65,4,4,0,0,0-1.82.21,3.83,3.83,0,0,0-1.62-.46l-1.61.93a8.63,8.63,0,0,0-2.07-.47c-.34,0-1.19.09-2.54.26a11.35,11.35,0,0,0-4.37-1.23c-1.55.34-2.33.89-2.33,1.65-.68-.23-1,.14-1,1.1-.48.79-.14,1.94,1,3.43.79,3,2.18,4.54,4.15,4.54.45.45,1.84,1,4.16,1.65,0,.23.31.45.93.68a18,18,0,0,0,6-1.4c1,0,1.88-.87,2.76-2.63a10.11,10.11,0,0,0,2.75-1.65c0,.14.09.21.26.21V449c-.17,0-.26-.08-.26-.25l1.19-.68c0,.17.07.25.21.25v-.51h1.87a2.73,2.73,0,0,1,1.35,2.59V451c0,1.5-1.14,2.68-3.43,3.56a7.52,7.52,0,0,1-2.33,2.16l-.47-.3v.3c.17,0,.26.07.26.21a38.73,38.73,0,0,1-5.77,1.65h-.68l-.46-.21v.47h-1.4A38.67,38.67,0,0,0,801,458a12.63,12.63,0,0,0-3.9-2.54c0-.48-1.15-2.07-3.47-4.79q-1.53-2.49-2.5-8.51v-7.12A34,34,0,0,1,793,428.4a10.11,10.11,0,0,0,2.76-4A22,22,0,0,1,810,419.61Zm.08,7.12q-1.23,0-1.23-.51-4.23.46-5.12,1.44c-2.83-.17-4.86,1.6-6.11,5.3q-1.49,4.92,3.18,4.45a1.82,1.82,0,0,1,.72-.21.56.56,0,0,0,.51.51l.72.08c2,.09,2.92,0,2.92-.38a.23.23,0,0,1,.26.2v.05l1.23-.16h1.23l1.48.38a15.14,15.14,0,0,1,4.11-.76c.11-.2,1.5-.53,4.15-1v-.25c0-.45-.07-.68-.21-.68l1.27-.72-1.06-2.3a4.1,4.1,0,0,0-3.13-3.52v-2.12a6,6,0,0,0-2-.81,7.87,7.87,0,0,0-2.72,1.06Z"/><path d="M884.8,419.44c3.05.85,4.81,1.77,5.3,2.76q1.35,0,2.76,4.87a.19.19,0,0,1,.21.17v2.12a11,11,0,0,0,.25,2.07c0,1.22-2.15,2.29-6.44,3.23q-3.95-1.28-3.94-3c-.2,0-.42-.45-.68-1.36a16.7,16.7,0,0,0,.26-2.54v-.47c-.71-1.24-2-1.86-3.95-1.86a14.46,14.46,0,0,0-3,2.33c-.67.05-2.05,1.35-4.16,3.9a35.06,35.06,0,0,1-3.47,5.08v.43a3.74,3.74,0,0,0,.47,1.82,12.53,12.53,0,0,0-.47,3.22,11.15,11.15,0,0,0,.25,2.08,7.17,7.17,0,0,0-.46,2.75q0,5.55,3.43,5.55h4.7a14.26,14.26,0,0,0,1.82-.46h.72c2.15,0,3.81,1.61,5,4.83v.68a2,2,0,0,0-.21.67h-.67a3.4,3.4,0,0,0-1.87-.67c-.59.08-1.06.55-1.4,1.39a1.81,1.81,0,0,0-.68.22,24.43,24.43,0,0,0-6.23-1.61,7,7,0,0,0-1.82,1.39h-.66c0-.31-.53-1-1.61-2.07h-.72a10.79,10.79,0,0,0-4.36,2.07,8.24,8.24,0,0,0-2.08-.46h-4.83a3.31,3.31,0,0,0-2.07,1.14,18.71,18.71,0,0,0-3.9-1.82,1.55,1.55,0,0,1-.68-1.19,7,7,0,0,0,1.14-2.5,15.74,15.74,0,0,1,4.37-1.14c0-.17.46-.25,1.4-.25h4.83a2,2,0,0,0,1.14-1.83,26.87,26.87,0,0,0-.25-3.47,26.69,26.69,0,0,0,.25-3.22,37.85,37.85,0,0,1-.68-5.3,8.61,8.61,0,0,0,.89-2.75,8.18,8.18,0,0,1-.46-2.29c0-.79.24-1.19.72-1.19-.62-5.06-1.16-7.58-1.61-7.58h-.72a17.22,17.22,0,0,0-4.58.46l-1.4-.25h-.46a15.22,15.22,0,0,0-3,.46c-1.07-.31-1.61-.91-1.61-1.82q.51-4.15,3.64-4.15l1.66.68a12.94,12.94,0,0,1,3.22-.43h.67q8.31.35,8.31,2.76a4.17,4.17,0,0,0,2.5,1.61q1.65,0,3.48-3,.16,0,5.76-1.36a.19.19,0,0,0,.16.22h0c0-.23.23-.46.68-.68h2.54A15.61,15.61,0,0,0,884.8,419.44Zm-27.71,42.38a6.17,6.17,0,0,0,1.44.51,10.44,10.44,0,0,1,2-.26h.55c.76,0,1.14.26,1.14.77a1.76,1.76,0,0,1-1.14.42,3.8,3.8,0,0,1-1.06-.13,10.6,10.6,0,0,1-1.69.13h-.13a8.79,8.79,0,0,1-2.12-.64h-.89c-.17,0-.25-.1-.25-.29Zm21.27-20.26h.5v.94a1.82,1.82,0,0,0-.72.21l-.21-.47V442C878,441.72,878.11,441.56,878.36,441.56Z"/><path d="M954.26,432.37v.68a36.65,36.65,0,0,1-7.37,2.79q-2.13,3-4.11,3a10.21,10.21,0,0,0-4.92,1.33h-.21l-2.08-.26q-.8.13-4.83,3.22a11.05,11.05,0,0,0-7.58,3l-.93.47c-2.15-.2-3.23-1.27-3.22-3.22v-.21a1.59,1.59,0,0,1,.67-.21v-1.4c0-.9.62-1.35,1.87-1.35,0-.23.53-.47,1.61-.72l.46.25a27.89,27.89,0,0,1,7.8-2.29,12.93,12.93,0,0,1,4.44-2.28,2.86,2.86,0,0,1,1.61-1.35c1.35.14,2.19.21,2.5.21a24,24,0,0,1,5.08-1.15c0-.31.23-.46.68-.46v-1.61q-1.14,0-10.34-3.44c-1.72,0-2.79-.55-3.22-1.65a23.24,23.24,0,0,0-8.52-2,1.82,1.82,0,0,1-.72.21l-1.14-.68h-1.61a2.22,2.22,0,0,0-.68-1.4c0-2,.54-3,1.61-3,0-.19.61-.49,1.82-.88l3.48,1.14v.21a.19.19,0,0,0,.21-.17v0a5.09,5.09,0,0,0,1.61.93l-.21.47h.21v-.34c.88.77,3.26,1.3,7.16,1.61a38,38,0,0,0,6.44,2.55q6.49,3,9,3c.73,0,1.65.92,2.75,2.76A4.6,4.6,0,0,1,954.26,432.37Z"/><polygon class="cls-1" points="385.9 280.01 550.82 243.2 419 187.77 385.9 280.01"/><polyline class="cls-4" points="307.7 0 497.15 69.37 477.7 107.91 321.23 32.76"/><polygon class="cls-1" points="427.25 168.5 471.38 89.06 549.21 213.42 427.25 168.5"/><polygon class="cls-3" points="426.1 166.71 601.36 233.29 552.16 243.61 418.2 189.24 426.1 166.71"/><polygon class="cls-3" points="476.39 103.63 496.8 69.7 602.76 233.29 552.53 220.48 476.39 103.63"/><polygon class="cls-5" points="321.23 32.76 484.68 91.26 426.99 168.5 321.23 32.76"/><polygon class="cls-5" points="432.2 160.31 369.46 321.27 265.17 342.6 432.2 160.31"/></g></svg>